# xmcd CD database file
#
# Track frame offsets:
#	150
#	15061
#	40763
#	56949
#	79045
#	151819
#	172519
#	197304
#	212637
#	231606
#	248478
#	265207
#
# Disc length: 3828 seconds
#
# Revision: 2
# Processed by: cddbd v1.5.2PL0 Copyright (c) Steve Scherf et al.
# Submitted via: CDex 1.81
#
DISCID=860ef20c
DTITLE=Bobby van Deusen - Very Pretty, Very Jazzy!!
DYEAR=1900
DGENRE=Jazz
TTITLE0=Cast Your Fate to the Wind
TTITLE1=Somewhere in Time
TTITLE2=The Way You Look Tonight
TTITLE3=Eugenia
TTITLE4=Phantom of the Opera
TTITLE5=Days of Wine and Roses
TTITLE6=All the Things You Are
TTITLE7=Embraceable You
TTITLE8=Seville Rag
TTITLE9=Summer Wind
TTITLE10=Something You Said
TTITLE11=Bourbon Street Parade
EXTD=
EXTT0=
EXTT1=
EXTT2=
EXTT3=
EXTT4=
EXTT5=
EXTT6=
EXTT7=
EXTT8=
EXTT9=
EXTT10=
EXTT11=
PLAYORDER=
